<svg class="svg-icon" style="width: 1em; height: 1em;vertical-align: middle;fill: currentColor;overflow: hidden;" viewBox="0 0 1024 1024" version="1.1" xmlns="http://www.w3.org/2000/svg"><path d="M284.672 893.5936H106.0352a24.2688 24.2688 0 0 1-24.2176-22.6304l-15.36-213.504-52.5312-26.3168a24.1664 24.1664 0 0 1-13.4144-21.7088V479.5392a121.856 121.856 0 0 1 121.8048-121.8048h129.8944c46.7456 0 90.0096 27.392 110.08 69.7344a24.3712 24.3712 0 1 1-44.032 20.8896 73.4208 73.4208 0 0 0-66.048-41.8816H122.3168c-40.2944 0-73.1136 32.768-73.1136 73.0624v114.8928l51.456 25.7536c7.68 3.84 12.8 11.4688 13.4144 20.0704l14.592 204.5952H284.672a24.32 24.32 0 1 1 0 48.7424zM187.2384 309.0432a121.856 121.856 0 0 1-121.8048-121.8048 121.856 121.856 0 0 1 121.856-121.8048 121.856 121.856 0 0 1 121.7536 121.856 121.856 121.856 0 0 1-121.8048 121.7536z m0-194.8672c-40.2944 0-73.0624 32.768-73.0624 73.0624s32.768 73.0624 73.0624 73.0624 73.0624-32.768 73.0624-73.0624-32.768-73.0624-73.0624-73.0624zM918.016 893.5936H739.328a24.32 24.32 0 1 1 0-48.7424h156.0064l14.592-204.6976a24.32 24.32 0 0 1 13.4144-20.0704l51.456-25.7536V479.5392c0-40.2944-32.768-73.0624-73.1136-73.0624h-129.8944c-28.1088 0-53.9648 16.384-66.048 41.8816a24.3712 24.3712 0 1 1-44.032-20.8896 122.5216 122.5216 0 0 1 110.08-69.7344h129.8944a121.856 121.856 0 0 1 121.856 121.8048v129.8944c0 9.216-5.2224 17.664-13.568 21.8112l-52.4288 26.1632-15.2576 213.504a24.4736 24.4736 0 0 1-24.32 22.6816zM836.7616 309.0432a121.856 121.856 0 0 1-121.8048-121.8048 121.856 121.856 0 0 1 121.8048-121.8048 121.856 121.856 0 0 1 121.8048 121.856 121.856 121.856 0 0 1-121.856 121.7536z m0-194.8672c-40.2944 0-73.0624 32.768-73.0624 73.0624s32.768 73.0624 73.0624 73.0624 73.0624-32.768 73.0624-73.0624-32.768-73.0624-73.0624-73.0624z"  /><path d="M609.4336 1023.488H414.5664a24.4224 24.4224 0 0 1-24.3712-22.8352l-15.0016-241.152-62.8224-12.544a24.32 24.32 0 0 1-19.5584-23.8592V512A154.4704 154.4704 0 0 1 446.976 357.7344h129.9456A154.4704 154.4704 0 0 1 731.136 512v211.0976c0 11.5712-8.192 21.6064-19.5584 23.8592l-62.8224 12.544-15.0016 241.152a24.4224 24.4224 0 0 1-24.3712 22.8352z m-172.032-48.6912h149.0944l14.848-237.0048a24.32 24.32 0 0 1 19.456-22.3232l61.5936-12.288V512a105.728 105.728 0 0 0-105.5232-105.5232H446.976A105.728 105.728 0 0 0 341.504 512v191.0784l61.5936 12.288a24.1664 24.1664 0 0 1 19.456 22.3232l14.848 237.056zM512 309.0432a154.4704 154.4704 0 0 1-154.2656-154.2656A154.4704 154.4704 0 0 1 512 0.512a154.4704 154.4704 0 0 1 154.2656 154.2656A154.4704 154.4704 0 0 1 512 309.0432zM512 49.152a105.728 105.728 0 0 0-105.5232 105.5744c0 58.1632 47.36 105.5232 105.5232 105.5232a105.728 105.728 0 0 0 105.5232-105.5232A105.728 105.728 0 0 0 512 49.152z"  /></svg>